HIERARCHY
ROOT Hips
{
	OFFSET -0.179506 -22.333345 2.821913
	CHANNELS 6 Xposition Yposition Zposition Zrotation Yrotation Xrotation 
	JOINT LeftUpLeg
	{
		OFFSET 6.951974 -9.140623 -0.681533
		CHANNELS 3 Zrotation Yrotation Xrotation
		JOINT LeftLeg
		{
			OFFSET 3.427654 -37.519855 -0.449580
			CHANNELS 3 Zrotation Yrotation Xrotation
			JOINT LeftFoot
			{
				OFFSET -1.359570 -39.796059 -4.369333
				CHANNELS 3 Zrotation Yrotation Xrotation
				JOINT LeftToe
				{
					OFFSET 2.635814 -5.579078 11.928840
					CHANNELS 3 Zrotation Yrotation Xrotation
					End Site
					{
						OFFSET 0.000000 0.000000 0.000000
					}
				}
			}
		}
	}
	JOINT RightUpLeg
	{
		OFFSET -6.767048 -9.052170 -0.431982
		CHANNELS 3 Zrotation Yrotation Xrotation
		JOINT RightLeg
		{
			OFFSET -3.829005 -38.256897 -0.885003
			CHANNELS 3 Zrotation Yrotation Xrotation
			JOINT RightFoot
			{
				OFFSET 1.577377 -39.841461 -4.231180
				CHANNELS 3 Zrotation Yrotation Xrotation
				JOINT RightToe
				{
					OFFSET -2.537174 -4.814398 12.334795
					CHANNELS 3 Zrotation Yrotation Xrotation
					End Site
					{
						OFFSET 0.000000 0.000000 0.000000
					}
				}
			}
		}
	}
	JOINT Spine
	{
		OFFSET -0.253288 10.896323 -2.669631
		CHANNELS 3 Zrotation Yrotation Xrotation
		JOINT Spine1
		{
			OFFSET 0.548704 13.518043 0.109247
			CHANNELS 3 Zrotation Yrotation Xrotation
			JOINT Spine2
			{
				OFFSET 0.145701 5.292222 2.542457
				CHANNELS 3 Zrotation Yrotation Xrotation
				JOINT Neck
				{
					OFFSET -0.277840 21.387037 -4.285703
					CHANNELS 3 Zrotation Yrotation Xrotation
					JOINT Head
					{
						OFFSET 0.515184 6.496960 5.134897
						CHANNELS 3 Zrotation Yrotation Xrotation
						End Site
						{
							OFFSET 0.000000 0.000000 0.000000
						}
					}
				}
				JOINT LeftShoulder
				{
					OFFSET 7.884473 12.174932 -3.408961
					CHANNELS 3 Zrotation Yrotation Xrotation
					JOINT LeftArm
					{
						OFFSET 9.097692 3.046888 -0.886815
						CHANNELS 3 Zrotation Yrotation Xrotation
						JOINT LeftForeArm
						{
							OFFSET 25.961220 -1.277207 -2.745643
							CHANNELS 3 Zrotation Yrotation Xrotation
							JOINT LeftHand
							{
								OFFSET 24.923361 0.898606 -0.117091
								CHANNELS 3 Zrotation Yrotation Xrotation
								End Site
								{
									OFFSET 0.000000 0.000000 0.000000
								}
							}
						}
					}
				}
				JOINT RightShoulder
				{
					OFFSET -8.175920 11.883285 -3.861528
					CHANNELS 3 Zrotation Yrotation Xrotation
					JOINT RightArm
					{
						OFFSET -9.601238 3.255117 -0.914307
						CHANNELS 3 Zrotation Yrotation Xrotation
						JOINT RightForeArm
						{
							OFFSET -25.374195 -1.332924 -2.140099
							CHANNELS 3 Zrotation Yrotation Xrotation
							JOINT RightHand
							{
								OFFSET -25.529810 0.777228 -0.555919
								CHANNELS 3 Zrotation Yrotation Xrotation
								End Site
								{
									OFFSET 0.000000 0.000000 0.000000
								}
							}
						}
					}
				}
			}
		}
	}
}
MOTION
Frames: 13
Frame Time: 0.033333
-34.829792 18.017214 95.201019 178.233933 -2.237745 88.679736 -5.709137 -3.941375 8.482712 6.178692 -5.505085 -11.802943 2.801372 11.620694 0.865027 nan nan nan -3.386584 -2.131277 5.171237 1.845736 -2.002905 -8.998206 5.503273 -8.705297 3.732081 nan nan nan -2.882497 2.745445 -1.739236 2.816384 -4.816218 2.954839 0.370141 1.469558 -1.921123 -6.033191 -8.788482 0.167846 6.637344 1.747139 1.440440 -16.632956 -8.711759 -1.601415 -54.321288 -20.905589 18.072937 41.023879 -58.405242 -56.635975 -12.495116 -24.044989 -55.617286 17.015362 12.311808 -4.199828 48.174955 22.536309 12.906267 -29.666156 58.906566 -38.238728 24.854006 7.440925 -28.070735 
-34.815395 18.026360 95.198105 178.218865 -2.134830 88.635763 -5.547741 -3.804096 8.537131 6.137417 -5.589761 -11.836971 2.662797 11.667091 0.858191 nan nan nan -3.230904 -2.109145 5.254151 1.743882 -1.968365 -9.083769 5.736103 -8.766829 3.780666 nan nan nan -2.838314 2.747243 -1.673879 2.814865 -4.828966 2.805427 0.517351 1.471544 -1.728866 -6.081155 -8.808844 0.588576 6.618399 1.876804 0.745618 -16.709148 -8.826624 -1.737918 -54.052977 -20.680516 17.999919 41.053618 -58.441285 -56.724371 -12.600771 -24.057283 -55.345708 16.836867 12.488646 -4.438789 48.110352 22.286837 12.784045 -29.319814 59.051726 -38.028803 25.035750 7.564089 -28.239246 
-34.799606 18.033237 95.197838 178.213790 -2.118289 88.596041 -5.501645 -3.721966 8.576723 6.108502 -5.573701 -11.841255 2.586907 11.524556 0.958878 nan nan nan -3.201443 -2.112959 5.303929 1.722263 -2.016299 -9.076663 5.744386 -8.687606 3.755480 nan nan nan -2.712146 2.689843 -1.637846 2.771260 -4.854669 2.868465 0.502768 1.465721 -1.828127 -6.120876 -8.787185 0.830325 6.331443 1.986325 0.532310 -16.743906 -8.745243 -1.736742 -54.193913 -20.687641 17.877808 41.120977 -58.276337 -56.685985 -12.756219 -24.030321 -55.127867 16.682232 12.519774 -4.272047 48.289069 22.501077 12.743696 -29.275603 58.934313 -37.940061 25.069819 7.572332 -28.151904 
-34.787582 18.035889 95.195175 178.233417 -2.089647 88.641092 -5.457843 -3.710167 8.484969 6.088179 -5.717004 -11.817577 2.501211 11.448736 1.194354 nan nan nan -3.169756 -2.096791 5.231724 1.733563 -1.993010 -9.040576 5.659027 -8.705162 3.769914 nan nan nan -2.838940 2.719699 -1.712948 2.833551 -4.854170 2.888125 0.628531 1.458619 -1.843911 -6.176344 -8.931957 1.067749 6.410548 2.112428 0.413708 -16.879290 -8.963248 -1.580092 -53.830638 -20.549474 17.885577 41.103122 -58.568936 -56.877964 -12.378839 -24.245909 -55.651062 16.706079 12.653258 -4.295531 48.041048 22.265975 12.614421 -29.265147 59.032819 -38.043913 24.953064 7.730486 -28.388767 
-34.751804 18.069675 95.190483 178.306659 -2.067650 88.629644 -5.397489 -3.764909 8.575509 6.134766 -6.419966 -11.982434 2.804872 11.965132 1.631256 nan nan nan -3.125222 -2.210769 5.323525 1.695007 -1.541540 -9.144590 5.691463 -9.146167 3.945000 nan nan nan -3.081488 2.750573 -1.709516 2.967825 -4.818322 2.444615 0.762358 1.552768 -1.316697 -6.473672 -9.918769 1.096079 6.663015 2.883525 0.470704 -16.800388 -9.264931 -1.352790 -53.903448 -20.294289 18.100903 40.892648 -58.518037 -55.459397 -8.159689 -17.846572 -55.558694 16.869680 12.329865 -4.531872 47.604099 22.195100 12.155364 -27.943205 59.717195 -37.167308 22.593608 5.817285 -28.788415 
-34.734829 18.106018 95.228539 178.395335 -2.061002 88.700365 -5.354833 -3.821788 8.607504 6.120363 -6.906857 -12.116612 2.667464 12.186949 1.678795 nan nan nan -3.148741 -2.134819 5.405009 1.793884 -1.498234 -9.329677 6.095646 -9.436808 4.006855 nan nan nan -3.580332 3.126212 -2.004426 3.218935 -4.408718 1.608525 1.236739 1.190878 -0.238779 -7.422956 -11.020820 1.605593 7.416430 3.527590 0.173571 -17.533040 -10.340954 -0.617594 -52.891151 -20.394218 17.187654 40.041442 -58.770846 -54.600825 -8.618502 -18.040874 -57.266847 16.910239 12.062701 -4.945729 47.128620 21.727115 10.773637 -26.333690 60.357065 -35.292869 25.131619 5.284779 -28.257163 
-34.732101 18.117657 95.243797 178.426647 -2.028538 88.771876 -5.275597 -3.841749 8.548421 6.092998 -6.873515 -12.126282 2.607590 12.182538 1.632455 nan nan nan -3.121549 -2.066809 5.381377 1.828038 -1.665229 -9.410795 6.306006 -9.327915 4.167539 nan nan nan -3.604044 3.145237 -2.162236 3.274304 -4.401517 1.662131 1.261343 1.109854 -0.218047 -7.436068 -10.908470 1.643668 7.404750 3.497094 0.040643 -17.479438 -10.305256 -0.730903 -53.180595 -20.343444 17.154908 40.488527 -58.567089 -54.896053 -7.849786 -18.074488 -57.095742 16.818038 12.043704 -5.070025 47.192116 21.668914 10.758472 -25.965718 60.365562 -34.934112 24.816064 5.530364 -28.172049 
-34.735050 18.102787 95.244286 178.474384 -2.071449 88.830942 -5.331658 -3.982116 8.441149 6.097583 -6.823541 -12.043487 2.607933 12.235862 1.596228 nan nan nan -3.151194 -1.993920 5.336716 1.808815 -1.687482 -9.477926 6.481699 -9.391968 4.241975 nan nan nan -3.692612 3.179154 -2.218164 3.312659 -4.466804 1.721934 1.268284 1.086047 -0.279982 -7.520994 -10.997892 1.687970 7.440701 3.592854 -0.010340 -17.484979 -10.226120 -0.744192 -53.212392 -20.435029 17.198544 39.890629 -58.566870 -54.200268 -9.365439 -18.223104 -57.304058 16.800556 11.994624 -5.057619 47.270044 21.755270 10.807820 -26.220660 60.251834 -35.105692 25.393920 5.350280 -28.199469 
-34.727005 18.102076 95.255836 178.530715 -2.112870 88.858291 -5.371227 -4.078088 8.382013 6.076296 -6.718240 -11.960182 2.565188 12.157250 1.544517 nan nan nan -3.190422 -2.018236 5.305814 1.810494 -1.813661 -9.458204 6.558556 -9.327304 4.270054 nan nan nan -3.776031 3.179746 -2.266551 3.323673 -4.510776 1.742520 1.283533 1.039193 -0.312357 -7.488618 -10.927846 1.687949 7.397569 3.550220 0.062184 -17.361296 -10.146783 -0.775460 -53.573904 -20.488745 17.226257 40.060898 -58.310495 -54.138728 -9.742464 -18.312628 -57.133556 16.777611 12.007676 -5.011172 47.372628 21.785561 10.882455 -26.449821 60.124541 -35.295749 25.555099 5.466165 -28.134967 
-34.736526 18.131685 95.263969 178.461976 -2.101954 88.793428 -5.369309 -3.961520 8.494688 6.057695 -6.651161 -12.000929 2.517252 12.153285 1.490335 nan nan nan -3.229897 -2.084718 5.371521 1.853639 -1.833440 -9.418699 6.569478 -9.198545 4.285984 nan nan nan -3.734310 3.190329 -2.279346 3.319087 -4.458897 1.775284 1.291925 1.032094 -0.235244 -7.411814 -10.885636 1.724295 7.266296 3.526310 -0.082760 -17.349146 -10.155594 -0.843967 -53.640226 -20.443384 17.210334 40.358628 -58.241980 -54.443846 -8.831292 -18.258562 -56.969912 16.722566 12.042421 -5.102150 47.335202 21.723582 10.876471 -26.200066 60.166816 -35.077796 25.285415 5.627650 -28.090968 
-34.747425 18.152182 95.264084 178.415200 -2.072411 88.747251 -5.334398 -3.854419 8.609810 6.040828 -6.736123 -12.110833 2.493573 12.222805 1.521381 nan nan nan -3.207089 -2.115777 5.433738 1.851918 -1.750443 -9.424459 6.533519 -9.227099 4.261260 nan nan nan -3.706751 3.210488 -2.316459 3.333280 -4.418236 1.790052 1.320760 1.032356 -0.121158 -7.411364 -10.960492 1.760325 7.239696 3.540096 -0.204774 -17.456754 -10.239157 -0.852518 -53.324457 -20.383518 17.128943 40.210247 -58.448566 -54.531662 -7.999765 -18.120815 -56.929806 16.712562 12.076315 -5.171337 47.161484 21.655667 10.763093 -25.819223 60.296675 -34.837672 24.997032 5.684541 -28.143716 
-34.743828 18.146351 95.269913 178.474655 -2.109659 88.773174 -5.348499 -3.881035 8.596261 5.998940 -6.851292 -12.170069 2.467359 12.278020 1.591682 nan nan nan -3.228722 -2.118547 5.421496 1.852867 -1.781693 -9.430133 6.409491 -9.324421 4.216834 nan nan nan -3.806308 3.206858 -2.324287 3.355238 -4.431063 1.762454 1.351336 1.008751 -0.117682 -7.431141 -11.054874 1.797198 7.290803 3.546895 -0.187305 -17.513475 -10.245176 -0.821471 -53.151952 -20.386660 17.131390 40.070144 -58.565887 -54.576996 -7.672866 -17.960372 -57.001197 16.806318 12.058495 -5.211408 47.064615 21.595870 10.760288 -25.765265 60.351480 -34.899689 24.865008 5.653547 -28.251591 
-34.724491 18.142481 95.277695 178.564541 -2.139353 88.801689 -5.332611 -3.926205 8.525344 5.947078 -6.889874 -12.122863 2.458418 12.250536 1.588470 nan nan nan -3.236363 -2.126190 5.415770 1.866338 -1.857954 -9.431467 6.252682 -9.381698 4.194303 nan nan nan -3.890955 3.183690 -2.343535 3.367212 -4.474602 1.800642 1.347714 0.980634 -0.202676 -7.401612 -11.061124 1.781413 7.342194 3.495527 -0.021638 -17.518711 -10.227328 -0.766190 -53.126423 -20.409094 17.103064 40.167143 -58.552040 -54.666353 -7.666774 -17.873839 -57.023712 16.874888 12.043117 -5.173868 47.085516 21.614867 10.781582 -25.829212 60.299041 -35.000800 24.711431 5.582930 -28.255337 
